<?xml version="1.0" encoding="UTF-8" standalone="no"?>
<!-- Created with Inkscape (http://www.inkscape.org/) -->

<svg
   xmlns:dc="http://purl.org/dc/elements/1.1/"
   xmlns:cc="http://creativecommons.org/ns#"
   xmlns:rdf="http://www.w3.org/1999/02/22-rdf-syntax-ns#"
   xmlns:svg="http://www.w3.org/2000/svg"
   xmlns="http://www.w3.org/2000/svg"
   version="1.1"
   width="96"
   height="96"
   viewBox="0 0 96 96"
   id="eye"
   xml:space="preserve"><metadata
     id="metadata11"><rdf:RDF><cc:Work
         rdf:about=""><dc:format>image/svg+xml</dc:format><dc:type
           rdf:resource="http://purl.org/dc/dcmitype/StillImage" /><dc:title></dc:title></cc:Work></rdf:RDF></metadata><defs
     id="defs9" /><path
     d="M 48,20 C 69.15,20 82.502,39.998 86.998,48 82.494,56.016 69.145,76 48,76 26.853,76 13.503,56.118 9.003,48.149 13.5,40.101 26.853,20 48,20 m 0,-8 C 16,12 0,48.166 0,48.166 0,48.166 16,84 48,84 80,84 96,48 96,48 96,48 80,12 48,12 l 0,0 z"
     id="path3" /><path
     d="m 72.40678,56.949154 a 14.440678,14.644068 0 1 1 -28.881355,0 14.440678,14.644068 0 1 1 28.881355,0 z"
     transform="matrix(1.1079812,0,0,1.0925926,-16.225353,-14.222224)"
     id="path2988"
     style="fill:#000000" /></svg>